<svg width="72" height="72" viewBox="0 0 72 72" fill="none" xmlns="http://www.w3.org/2000/svg">
<g clip-path="url(#clip0_3085_9126)">
<path d="M16 0H24V8H16V0ZM24 0H32V8H24V0ZM32 0H40V8H32V0ZM40 0H48V8H40V0ZM48 0H56V8H48V0ZM16 8H24V16H16V8ZM32 8H40V16H32V8ZM40 8H48V16H40V8ZM48 8H56V16H48V8ZM0 16H8V24H0V16ZM8 16H16V24H8V16ZM16 16H24V24H16V16ZM24 16H32V24H24V16ZM32 16H40V24H32V16ZM40 16H48V24H40V16ZM56 16H64V24H56V16ZM64 16H72V24H64V16ZM0 24H8V32H0V24ZM8 24H16V32H8V24ZM16 24H24V32H16V24ZM24 24H32V32H24V24ZM32 24H40V32H32V24ZM48 24H56V32H48V24ZM56 24H64V32H56V24ZM64 24H72V32H64V24ZM0 32H8V40H0V32ZM8 32H16V40H8V32ZM16 32H24V40H16V32ZM24 32H32V40H24V32ZM40 32H48V40H40V32ZM48 32H56V40H48V32ZM56 32H64V40H56V32ZM64 32H72V40H64V32ZM0 40H8V48H0V40ZM8 40H16V48H8V40ZM16 40H24V48H16V40ZM32 40H40V48H32V40ZM40 40H48V48H40V40ZM48 40H56V48H48V40ZM56 40H64V48H56V40ZM64 40H72V48H64V40ZM0 48H8V56H0V48ZM8 48H16V56H8V48ZM24 48H32V56H24V48ZM32 48H40V56H32V48ZM40 48H48V56H40V48ZM48 48H56V56H48V48ZM56 48H64V56H56V48ZM64 48H72V56H64V48ZM16 56H24V64H16V56ZM24 56H32V64H24V56ZM32 56H40V64H32V56ZM48 56H56V64H48V56ZM16 64H24V72H16V64ZM24 64H32V72H24V64ZM32 64H40V72H32V64ZM40 64H48V72H40V64ZM48 64H56V72H48V64Z" fill="#D6C3FF"/>
</g>
<defs>
<clipPath id="clip0_3085_9126">
<rect width="72" height="72" fill="white"/>
</clipPath>
</defs>
</svg>
