<svg width="72" height="72" viewBox="0 0 72 72" fill="none" xmlns="http://www.w3.org/2000/svg">
<g clip-path="url(#clip0_3085_9122)">
<path d="M24 0H32V8H24V0ZM40 0H48V8H40V0ZM0 8H8V16H0V8ZM24 8H32V16H24V8ZM40 8H48V16H40V8ZM64 8H72V16H64V8ZM0 16H8V24H0V16ZM16 16H24V24H16V16ZM24 16H32V24H24V16ZM32 16H40V24H32V16ZM40 16H48V24H40V16ZM48 16H56V24H48V16ZM64 16H72V24H64V16ZM0 24H8V32H0V24ZM8 24H16V32H8V24ZM16 24H24V32H16V24ZM24 24H32V32H24V24ZM32 24H40V32H32V24ZM40 24H48V32H40V24ZM48 24H56V32H48V24ZM56 24H64V32H56V24ZM64 24H72V32H64V24ZM0 32H8V40H0V32ZM8 32H16V40H8V32ZM24 32H32V40H24V32ZM32 32H40V40H32V32ZM40 32H48V40H40V32ZM56 32H64V40H56V32ZM64 32H72V40H64V32ZM0 40H8V48H0V40ZM8 40H16V48H8V40ZM24 40H32V48H24V40ZM32 40H40V48H32V40ZM40 40H48V48H40V40ZM56 40H64V48H56V40ZM64 40H72V48H64V40ZM8 48H16V56H8V48ZM16 48H24V56H16V48ZM24 48H32V56H24V48ZM32 48H40V56H32V48ZM40 48H48V56H40V48ZM48 48H56V56H48V48ZM56 48H64V56H56V48ZM16 56H24V64H16V56ZM24 56H32V64H24V56ZM40 56H48V64H40V56ZM48 56H56V64H48V56ZM8 64H16V72H8V64ZM56 64H64V72H56V64Z" fill="#D6C3FF"/>
</g>
<defs>
<clipPath id="clip0_3085_9122">
<rect width="72" height="72" fill="white"/>
</clipPath>
</defs>
</svg>
