<svg width="72" height="72" viewBox="0 0 72 72" fill="none" xmlns="http://www.w3.org/2000/svg">
<g clip-path="url(#clip0_3085_9124)">
<path d="M0 0H7.9995V7.9995H0V0ZM7.9995 0H16.0005V7.9995H7.9995V0ZM16.0005 0H24V7.9995H16.0005V0ZM24 0H31.9995V7.9995H24V0ZM31.9995 0H40.0005V7.9995H31.9995V0ZM40.0005 0H48V7.9995H40.0005V0ZM48 0H55.9995V7.9995H48V0ZM55.9995 0H64.0005V7.9995H55.9995V0ZM64.0005 0H72V7.9995H64.0005V0ZM0 7.9995H7.9995V16.0005H0V7.9995ZM64.0005 7.9995H72V16.0005H64.0005V7.9995ZM0 16.0005H7.9995V24H0V16.0005ZM64.0005 16.0005H72V24H64.0005V16.0005ZM0 24H7.9995V31.9995H0V24ZM7.9995 24H16.0005V31.9995H7.9995V24ZM16.0005 24H24V31.9995H16.0005V24ZM24 24H31.9995V31.9995H24V24ZM31.9995 24H40.0005V31.9995H31.9995V24ZM40.0005 24H48V31.9995H40.0005V24ZM48 24H55.9995V31.9995H48V24ZM55.9995 24H64.0005V31.9995H55.9995V24ZM64.0005 24H72V31.9995H64.0005V24ZM0 31.9995H7.9995V40.0005H0V31.9995ZM16.0005 31.9995H24V40.0005H16.0005V31.9995ZM31.9995 31.9995H40.0005V40.0005H31.9995V31.9995ZM48 31.9995H55.9995V40.0005H48V31.9995ZM64.0005 31.9995H72V40.0005H64.0005V31.9995ZM0 40.0005H7.9995V48H0V40.0005ZM7.9995 40.0005H16.0005V48H7.9995V40.0005ZM16.0005 40.0005H24V48H16.0005V40.0005ZM24 40.0005H31.9995V48H24V40.0005ZM31.9995 40.0005H40.0005V48H31.9995V40.0005ZM40.0005 40.0005H48V48H40.0005V40.0005ZM48 40.0005H55.9995V48H48V40.0005ZM55.9995 40.0005H64.0005V48H55.9995V40.0005ZM64.0005 40.0005H72V48H64.0005V40.0005ZM0 48H7.9995V55.9995H0V48ZM16.0005 48H24V55.9995H16.0005V48ZM31.9995 48H40.0005V55.9995H31.9995V48ZM48 48H55.9995V55.9995H48V48ZM64.0005 48H72V55.9995H64.0005V48ZM0 55.9995H7.9995V64.0005H0V55.9995ZM7.9995 55.9995H16.0005V64.0005H7.9995V55.9995ZM16.0005 55.9995H24V64.0005H16.0005V55.9995ZM24 55.9995H31.9995V64.0005H24V55.9995ZM31.9995 55.9995H40.0005V64.0005H31.9995V55.9995ZM40.0005 55.9995H48V64.0005H40.0005V55.9995ZM48 55.9995H55.9995V64.0005H48V55.9995ZM64.0005 55.9995H72V64.0005H64.0005V55.9995ZM48 64.0005H55.9995V72H48V64.0005ZM55.9995 64.0005H64.0005V72H55.9995V64.0005ZM64.0005 64.0005H72V72H64.0005V64.0005Z" fill="#D6C3FF"/>
</g>
<defs>
<clipPath id="clip0_3085_9124">
<rect width="72" height="72" fill="white"/>
</clipPath>
</defs>
</svg>
