<svg width="20" height="20" viewBox="0 0 20 20" fill="none" xmlns="http://www.w3.org/2000/svg">
<path d="M7.50033 15.8333C3.33366 17.0833 3.33366 13.75 1.66699 13.3333M13.3337 18.3333V15.1083C13.3649 14.711 13.3112 14.3115 13.1762 13.9365C13.0411 13.5615 12.8278 13.2195 12.5503 12.9333C15.167 12.6417 17.917 11.65 17.917 7.1C17.9168 5.93652 17.4692 4.81766 16.667 3.975C17.0469 2.95709 17.02 1.83196 16.592 0.833332C16.592 0.833332 15.6087 0.541666 13.3337 2.06667C11.4237 1.54902 9.41032 1.54902 7.50033 2.06667C5.22533 0.541666 4.24199 0.833332 4.24199 0.833332C3.81397 1.83196 3.78711 2.95709 4.16699 3.975C3.35876 4.82392 2.91076 5.95288 2.91699 7.125C2.91699 11.6417 5.66699 12.6333 8.28366 12.9583C8.00949 13.2416 7.79804 13.5795 7.66308 13.9499C7.52812 14.3204 7.47267 14.7151 7.50033 15.1083V18.3333" stroke="white" stroke-linecap="round" stroke-linejoin="round"/>
</svg>
